<svg width="40" height="40" viewBox="0 0 40 40" fill="none" xmlns="http://www.w3.org/2000/svg">
<path fill-rule="evenodd" clip-rule="evenodd" d="M8.31624 22.297L20.6863 35.3774C21.4155 36.1484 21.4155 37.3547 20.6863 38.1258L20.367 38.4634C19.5779 39.2978 18.2498 39.2978 17.4608 38.4634L1.29958 21.3742C0.570405 20.6032 0.570405 19.3968 1.29958 18.6258L17.4608 1.53656C18.2498 0.702173 19.5779 0.702172 20.367 1.53656L20.6863 1.8742C21.4155 2.64525 21.4155 3.85157 20.6863 4.62262L8.31624 17.703L38 17.703C39.1046 17.703 40 18.5985 40 19.703V20.297C40 21.4015 39.1046 22.297 38 22.297L8.31624 22.297Z" fill="#666666"/>
</svg>
